<svg width="32" height="32" viewBox="0 0 32 32" fill="none" xmlns="http://www.w3.org/2000/svg">
<g clip-path="url(#clip0)">
<path d="M7.12003 2.82512e-05C6.18428 -0.0026114 5.25723 0.179751 4.3922 0.53663C3.52717 0.893508 2.74122 1.41786 2.07954 2.07954C1.41786 2.74122 0.893508 3.52717 0.53663 4.3922C0.179751 5.25723 -0.0026114 6.18428 2.82512e-05 7.12003V24.88C-0.0026114 25.8158 0.179751 26.7428 0.53663 27.6079C0.893508 28.4729 1.41786 29.2588 2.07954 29.9205C2.74122 30.5822 3.52717 31.1065 4.3922 31.4634C5.25723 31.8203 6.18428 32.0027 7.12003 32H24.88C25.8158 32.0027 26.7428 31.8203 27.6079 31.4634C28.4729 31.1065 29.2588 30.5822 29.9205 29.9205C30.5822 29.2588 31.1065 28.4729 31.4634 27.6079C31.8203 26.7428 32.0027 25.8158 32 24.88V7.12003C32.0027 6.18428 31.8203 5.25723 31.4634 4.3922C31.1065 3.52717 30.5822 2.74122 29.9205 2.07954C29.2588 1.41786 28.4729 0.893508 27.6079 0.53663C26.7428 0.179751 25.8158 -0.0026114 24.88 2.82512e-05H7.12003ZM15.817 3.42103C18.932 3.42103 21.749 4.62503 23.896 6.87403C25.527 8.56703 26.443 10.363 26.912 12.729C27.073 13.516 27.073 15.661 26.921 16.546C26.4231 19.3601 24.8813 21.8825 22.604 23.609C21.792 24.224 19.807 25.292 19.489 25.292C19.369 25.292 19.36 25.172 19.412 24.677C19.511 23.885 19.604 23.724 20.052 23.536C20.765 23.24 21.984 22.369 22.729 21.625C24.0315 20.3229 24.9566 18.6921 25.406 16.906C25.687 15.806 25.65 13.363 25.343 12.234C24.374 8.63903 21.436 5.84903 17.843 5.09803C16.802 4.88503 14.9 4.88503 13.843 5.09803C10.207 5.84903 7.19603 8.78103 6.28003 12.469C6.03503 13.473 6.03503 15.917 6.28003 16.917C6.88903 19.36 8.46803 21.598 10.535 22.932C10.942 23.203 11.431 23.479 11.635 23.563C12.082 23.755 12.182 23.918 12.264 24.703C12.316 25.188 12.305 25.323 12.192 25.323C12.119 25.323 11.572 25.088 10.993 24.812L10.941 24.771C7.64403 23.151 5.53403 20.407 4.76403 16.755C4.57703 15.812 4.54003 13.568 4.72803 12.703C5.20703 10.38 6.12403 8.56803 7.64903 6.96403C9.84803 4.64503 12.676 3.42103 15.821 3.42103H15.817ZM16 7.17203C16.4944 7.17085 16.9877 7.21774 17.473 7.31203C21.188 8.14003 23.817 11.855 23.306 15.541C23.103 17.03 22.593 18.25 21.687 19.385C21.239 19.958 20.15 20.917 19.958 20.917C19.926 20.917 19.895 20.552 19.895 20.114V19.306L20.447 18.645C22.54 16.14 22.39 12.64 20.108 10.349C19.223 9.45303 18.196 8.92603 16.873 8.68803C16.02 8.52703 15.842 8.52703 14.946 8.67703C13.582 8.89603 12.529 9.42103 11.591 10.349C9.30003 12.62 9.14803 16.14 11.243 18.645L11.795 19.306V20.119C11.795 20.567 11.758 20.926 11.711 20.926C11.675 20.926 11.362 20.713 11.028 20.447L10.981 20.431C9.87203 19.546 8.89303 17.978 8.48603 16.436C8.24203 15.504 8.24203 13.739 8.49703 12.811C9.16903 10.306 11.018 8.36303 13.576 7.45203C14.123 7.25903 15.085 7.15503 15.992 7.17103L16 7.17203ZM15.823 11.156C16.24 11.156 16.651 11.24 16.954 11.396C17.599 11.735 18.137 12.385 18.339 13.073C18.959 15.177 16.73 17.021 14.708 16.078H14.693C13.74 15.635 13.229 14.802 13.218 13.718C13.218 12.739 13.759 11.89 14.702 11.39C14.999 11.234 15.411 11.155 15.827 11.155L15.823 11.156ZM15.812 17.464C17.131 17.459 18.083 17.927 18.437 18.755C18.702 19.375 18.604 21.328 18.145 24.49C17.838 26.698 17.666 27.255 17.24 27.631C16.651 28.151 15.823 28.298 15.031 28.016H15.027C14.074 27.672 13.87 27.208 13.474 24.489C13.022 21.328 12.922 19.374 13.189 18.754C13.537 17.931 14.485 17.469 15.813 17.463L15.812 17.464Z" fill="#A509CB"/>
</g>
<defs>
<clipPath id="clip0">
<rect width="32" height="32" rx="2" fill="white"/>
</clipPath>
</defs>
</svg>
