<svg width="32" height="32" viewBox="0 0 32 32" fill="none" xmlns="http://www.w3.org/2000/svg">
<path d="M29.8 1H2.2C1.53625 1 1 1.53625 1 2.2V29.8C1 30.4638 1.53625 31 2.2 31H29.8C30.4638 31 31 30.4638 31 29.8V2.2C31 1.53625 30.4638 1 29.8 1ZM26.335 9.75625H23.9388C22.06 9.75625 21.6963 10.6488 21.6963 11.9613V14.8525H26.1813L25.5963 19.3787H21.6963V31H17.02V19.3825H13.1088V14.8525H17.02V11.515C17.02 7.64125 19.3863 5.53 22.8438 5.53C24.5013 5.53 25.9225 5.65375 26.3388 5.71V9.75625H26.335Z" fill="#1C0081"/>
</svg>
