<svg width="32" height="32" viewBox="0 0 32 32" fill="none" xmlns="http://www.w3.org/2000/svg">
<path d="M2.66663 18.0866C2.66663 15.3493 5.33329 14.6666 7.99996 14.6666V26.6666C6.58547 26.6666 5.22892 26.1047 4.22872 25.1045C3.22853 24.1043 2.66663 22.7478 2.66663 21.3333V18.0866Z" stroke="#9389BD" stroke-width="2.66667" stroke-linecap="round" stroke-linejoin="round"/>
<path d="M29.3333 18.0866C29.3333 15.3493 26.6667 14.6666 24 14.6666V26.6666C25.4145 26.6666 26.771 26.1047 27.7712 25.1045C28.7714 24.1043 29.3333 22.7478 29.3333 21.3333V18.0866Z" stroke="#9389BD" stroke-width="2.66667" stroke-linecap="round" stroke-linejoin="round"/>
<path d="M8 26.6666V13.3333C8 11.2116 8.84286 9.17675 10.3431 7.67646C11.8434 6.17617 13.8783 5.33331 16 5.33331C18.1217 5.33331 20.1566 6.17617 21.6569 7.67646C23.1571 9.17675 24 11.2116 24 13.3333V26.6666" stroke="#9389BD" stroke-width="2.66667" stroke-linecap="round" stroke-linejoin="round"/>
</svg>
