<svg width="32" height="32" viewBox="0 0 32 32" fill="none" xmlns="http://www.w3.org/2000/svg">
<path d="M6.99996 5.33337H25C26.1068 5.3333 27.1717 5.75678 27.9763 6.51694C28.7808 7.27709 29.264 8.3163 29.3266 9.42137L29.3333 9.66671V22.3334C29.3334 23.4402 28.9099 24.5051 28.1497 25.3097C27.3896 26.1142 26.3504 26.5974 25.2453 26.66L25 26.6667H6.99996C5.89311 26.6668 4.82819 26.2433 4.02365 25.4831C3.21912 24.723 2.73596 23.6838 2.67329 22.5787L2.66663 22.3334V9.66671C2.66655 8.55986 3.09003 7.49494 3.85019 6.6904C4.61035 5.88586 5.64955 5.40271 6.75463 5.34004L6.99996 5.33337H25H6.99996ZM27.3333 12.4974L16.4666 18.2174C16.3439 18.2822 16.2091 18.3208 16.0707 18.3306C15.9322 18.3405 15.7933 18.3215 15.6626 18.2747L15.5346 18.2187L4.66663 12.4987V22.3334C4.66665 22.919 4.88685 23.4831 5.28353 23.9139C5.68021 24.3447 6.22436 24.6105 6.80796 24.6587L6.99996 24.6667H25C25.5858 24.6667 26.1501 24.4463 26.5809 24.0493C27.0117 23.6524 27.2774 23.1079 27.3253 22.524L27.3333 22.3334V12.4974ZM25 7.33337H6.99996C6.41437 7.3334 5.8502 7.5536 5.41944 7.95028C4.98867 8.34696 4.72281 8.89111 4.67463 9.47471L4.66663 9.66671V10.2387L16 16.2027L27.3333 10.2374V9.66671C27.3332 9.08091 27.1129 8.51656 26.7159 8.08576C26.3189 7.65497 25.7745 7.38924 25.1906 7.34137L25 7.33337Z" fill="#B6ADD8"/>
</svg>
