<svg width="32" height="32" viewBox="0 0 32 32" fill="none" xmlns="http://www.w3.org/2000/svg">
<path d="M27.656 17.3933C26.7524 17.6333 25.8215 17.7547 24.8866 17.7546C22.04 17.7546 19.3666 16.648 17.3586 14.64C16.04 13.3138 15.0921 11.6651 14.6092 9.85837C14.1263 8.05161 14.1254 6.14985 14.6066 4.34264C14.6667 4.11669 14.6663 3.8789 14.6055 3.65314C14.5447 3.42738 14.4256 3.22157 14.2601 3.05638C14.0947 2.89119 13.8887 2.77241 13.6628 2.71196C13.4369 2.65151 13.1992 2.65152 12.9733 2.71198C10.7108 3.31489 8.64671 4.50214 6.98797 6.15464C1.79063 11.352 1.79063 19.812 6.98797 25.012C8.22334 26.2542 9.69281 27.2392 11.3114 27.9097C12.9299 28.5803 14.6654 28.9232 16.4173 28.9186C18.1688 28.9236 19.9038 28.5809 21.522 27.9105C23.1401 27.2402 24.6091 26.2554 25.844 25.0133C27.4977 23.3542 28.6855 21.289 29.288 19.0253C29.3478 18.7994 29.3473 18.5618 29.2865 18.3362C29.2257 18.1106 29.1068 17.9049 28.9416 17.7397C28.7764 17.5745 28.5707 17.4555 28.345 17.3947C28.1194 17.334 27.8818 17.3335 27.656 17.3933ZM23.96 23.128C22.9719 24.1214 21.7967 24.9091 20.5022 25.4453C19.2077 25.9815 17.8198 26.2557 16.4186 26.252C15.017 26.2555 13.6286 25.981 12.3337 25.4446C11.0388 24.9081 9.86314 24.1203 8.87463 23.1266C4.7173 18.968 4.7173 12.2 8.87463 8.04131C9.67797 7.23887 10.6054 6.57119 11.6213 6.06398C11.4726 7.98272 11.7399 9.91095 12.4049 11.7169C13.07 13.5228 14.1171 15.1639 15.4746 16.528C16.8357 17.8898 18.4763 18.9398 20.283 19.6053C22.0897 20.2709 24.0194 20.5361 25.9386 20.3826C25.4287 21.3968 24.7608 22.3235 23.96 23.128Z" fill="#E5E5E5"/>
</svg>
