<svg width="32" height="32" viewBox="0 0 32 32" fill="none" xmlns="http://www.w3.org/2000/svg">
<path d="M16 8.57141C15.0818 8.57141 14.1841 8.84371 13.4206 9.35387C12.6571 9.86404 12.062 10.5892 11.7106 11.4375C11.3592 12.2859 11.2672 13.2194 11.4464 14.12C11.6255 15.0207 12.0677 15.8479 12.717 16.4973C13.3664 17.1466 14.1936 17.5888 15.0943 17.7679C15.9949 17.9471 16.9284 17.8551 17.7768 17.5037C18.6252 17.1523 19.3503 16.5572 19.8604 15.7937C20.3706 15.0302 20.6429 14.1325 20.6429 13.2143C20.6429 11.9829 20.1537 10.802 19.283 9.93127C18.4123 9.06057 17.2314 8.57141 16 8.57141ZM16 16C15.4491 16 14.9105 15.8366 14.4524 15.5305C13.9943 15.2244 13.6372 14.7893 13.4264 14.2803C13.2155 13.7713 13.1604 13.2112 13.2678 12.6708C13.3753 12.1304 13.6406 11.6341 14.0302 11.2445C14.4198 10.8549 14.9162 10.5896 15.4566 10.4821C15.9969 10.3746 16.5571 10.4298 17.0661 10.6406C17.5751 10.8514 18.0102 11.2085 18.3163 11.6666C18.6224 12.1247 18.7857 12.6633 18.7857 13.2143C18.785 13.9529 18.4913 14.661 17.969 15.1832C17.4468 15.7055 16.7386 15.9992 16 16Z" fill="#B6ADD8"/>
<path d="M16 3C13.4288 3 10.9154 3.76244 8.77759 5.19089C6.63975 6.61935 4.97351 8.64967 3.98957 11.0251C3.00563 13.4006 2.74819 16.0144 3.2498 18.5362C3.7514 21.0579 4.98953 23.3743 6.80762 25.1924C8.6257 27.0105 10.9421 28.2486 13.4638 28.7502C15.9856 29.2518 18.5994 28.9944 20.9749 28.0104C23.3503 27.0265 25.3806 25.3602 26.8091 23.2224C28.2376 21.0846 29 18.5712 29 16C28.9961 12.5534 27.6252 9.24907 25.188 6.81195C22.7509 4.37483 19.4466 3.00393 16 3ZM10.4286 25.6358V24.3571C10.4293 23.6185 10.723 22.9104 11.2453 22.3882C11.7676 21.8659 12.4757 21.5722 13.2143 21.5714H18.7857C19.5243 21.5722 20.2324 21.8659 20.7547 22.3882C21.277 22.9104 21.5707 23.6185 21.5714 24.3571V25.6358C19.8807 26.623 17.9579 27.1433 16 27.1433C14.0421 27.1433 12.1193 26.623 10.4286 25.6358ZM23.4211 24.2884C23.4026 23.0704 22.9064 21.9085 22.0393 21.0529C21.1723 20.1973 20.0038 19.7166 18.7857 19.7143H13.2143C11.9962 19.7166 10.8277 20.1973 9.96066 21.0529C9.09361 21.9085 8.59737 23.0704 8.57886 24.2884C6.89496 22.7848 5.70747 20.8052 5.17364 18.6118C4.63981 16.4183 4.78481 14.1144 5.58946 12.0052C6.3941 9.89592 7.82042 8.08083 9.67956 6.80024C11.5387 5.51965 13.743 4.83395 16.0005 4.83395C18.258 4.83395 20.4622 5.51965 22.3214 6.80024C24.1805 8.08083 25.6068 9.89592 26.4115 12.0052C27.2161 14.1144 27.3611 16.4183 26.8273 18.6118C26.2935 20.8052 25.106 22.7848 23.4221 24.2884H23.4211Z" fill="#B6ADD8"/>
</svg>
