<svg width="32" height="32" viewBox="0 0 32 32" fill="none" xmlns="http://www.w3.org/2000/svg">
<path d="M28.1597 14.9493C28.7917 15.776 28.7917 16.892 28.1597 17.7173C26.1691 20.316 21.3931 25.6667 15.8171 25.6667C10.2411 25.6667 5.46507 20.316 3.47441 17.7173C3.16692 17.3215 3 16.8346 3 16.3333C3 15.8321 3.16692 15.3452 3.47441 14.9493C5.46507 12.3507 10.2411 7 15.8171 7C21.3931 7 26.1691 12.3507 28.1597 14.9493V14.9493Z" stroke="#E5E5E5" stroke-width="2.67" stroke-linecap="round" stroke-linejoin="round"/>
<path d="M15.817 20.3333C18.0262 20.3333 19.817 18.5425 19.817 16.3333C19.817 14.1242 18.0262 12.3333 15.817 12.3333C13.6079 12.3333 11.817 14.1242 11.817 16.3333C11.817 18.5425 13.6079 20.3333 15.817 20.3333Z" stroke="#E5E5E5" stroke-width="2.67" stroke-linecap="round" stroke-linejoin="round"/>
</svg>
