<svg width="32" height="32" viewBox="0 0 32 32" fill="none" xmlns="http://www.w3.org/2000/svg">
<path d="M16 3.99996V2.66663V3.99996ZM16 29.3333V28V29.3333ZM28 16H29.3333H28ZM2.66663 16H3.99996H2.66663ZM25.3333 6.66663L26.6666 5.33329L25.3333 6.66663ZM5.33329 26.6666L6.66663 25.3333L5.33329 26.6666ZM5.33329 5.33329L6.66663 6.66663L5.33329 5.33329ZM25.3333 25.3333L26.6666 26.6666L25.3333 25.3333ZM24 16C24 18.1217 23.1571 20.1565 21.6568 21.6568C20.1565 23.1571 18.1217 24 16 24C13.8782 24 11.8434 23.1571 10.3431 21.6568C8.84281 20.1565 7.99996 18.1217 7.99996 16C7.99996 13.8782 8.84281 11.8434 10.3431 10.3431C11.8434 8.84281 13.8782 7.99996 16 7.99996C18.1217 7.99996 20.1565 8.84281 21.6568 10.3431C23.1571 11.8434 24 13.8782 24 16V16Z" stroke="#E5E5E5" stroke-width="2.66667" stroke-linecap="round" stroke-linejoin="round"/>
</svg>
