<svg width="32" height="32" viewBox="0 0 32 32" fill="none" xmlns="http://www.w3.org/2000/svg">
<path d="M17.3333 8.33337H14.6666V9.66671C14.6666 10.0203 14.8071 10.3595 15.0572 10.6095C15.3072 10.8596 15.6463 11 16 11C16.3536 11 16.6927 10.8596 16.9428 10.6095C17.1928 10.3595 17.3333 10.0203 17.3333 9.66671V8.33337Z" fill="#9389BD"/>
<path fill-rule="evenodd" clip-rule="evenodd" d="M8 3V5.66667H9.33333V9.66667C9.33333 11.4348 10.0357 13.1305 11.286 14.3807C12.5362 15.631 14.2319 16.3333 16 16.3333C14.2319 16.3333 12.5362 17.0357 11.286 18.286C10.0357 19.5362 9.33333 21.2319 9.33333 23V27H8V29.6667H24V27H22.6667V23C22.6667 21.2319 21.9643 19.5362 20.714 18.286C19.4638 17.0357 17.7681 16.3333 16 16.3333C16.8755 16.3333 17.7424 16.1609 18.5512 15.8259C19.3601 15.4908 20.095 14.9998 20.714 14.3807C21.3331 13.7617 21.8242 13.0267 22.1592 12.2179C22.4942 11.4091 22.6667 10.5421 22.6667 9.66667V5.66667H24V3H8ZM12 5.66667H20V9.66667C20 10.7275 19.5786 11.7449 18.8284 12.4951C18.0783 13.2452 17.0609 13.6667 16 13.6667C14.9391 13.6667 13.9217 13.2452 13.1716 12.4951C12.4214 11.7449 12 10.7275 12 9.66667V5.66667ZM12 23V27H20V23C20 21.9391 19.5786 20.9217 18.8284 20.1716C18.0783 19.4214 17.0609 19 16 19C14.9391 19 13.9217 19.4214 13.1716 20.1716C12.4214 20.9217 12 21.9391 12 23Z" fill="#9389BD"/>
</svg>
