<svg width="32" height="32" viewBox="0 0 32 32" fill="none" xmlns="http://www.w3.org/2000/svg">
<path d="M29.8 1H2.2C1.53625 1 1 1.53625 1 2.2V29.8C1 30.4638 1.53625 31 2.2 31H29.8C30.4638 31 31 30.4638 31 29.8V2.2C31 1.53625 30.4638 1 29.8 1ZM24.0737 11.8638C24.085 12.04 24.085 12.2238 24.085 12.4038C24.085 17.9088 19.8925 24.25 12.2313 24.25C9.86875 24.25 7.67875 23.5638 5.83375 22.3825C6.17125 22.42 6.49375 22.435 6.83875 22.435C8.78875 22.435 10.5813 21.775 12.01 20.6575C10.18 20.62 8.6425 19.42 8.1175 17.77C8.75875 17.8638 9.33625 17.8638 9.99625 17.695C9.05397 17.5036 8.20703 16.9918 7.59931 16.2467C6.99159 15.5016 6.66057 14.569 6.6625 13.6075V13.555C7.21375 13.8663 7.8625 14.0575 8.54125 14.0838C7.97066 13.7035 7.50272 13.1883 7.17892 12.5839C6.85512 11.9794 6.68546 11.3044 6.685 10.6188C6.685 9.8425 6.8875 9.13375 7.25125 8.51875C8.29713 9.80626 9.60224 10.8593 11.0817 11.6094C12.5612 12.3595 14.182 12.7898 15.8388 12.8725C15.25 10.0413 17.365 7.75 19.9075 7.75C21.1075 7.75 22.1875 8.2525 22.9487 9.0625C23.89 8.88625 24.79 8.53375 25.5925 8.06125C25.2812 9.025 24.6288 9.83875 23.7625 10.3525C24.6025 10.2625 25.4125 10.03 26.1625 9.70375C25.5963 10.5363 24.8875 11.275 24.0737 11.8638Z" fill="#1C0081"/>
</svg>
