<svg width="32" height="32" viewBox="0 0 32 32" fill="none" xmlns="http://www.w3.org/2000/svg">
<path d="M27.8118 15.412C27.9604 15.5154 28.0817 15.6532 28.1655 15.8136C28.2492 15.9741 28.293 16.1524 28.293 16.3333C28.293 16.5143 28.2492 16.6926 28.1655 16.853C28.0817 17.0135 27.9604 17.1513 27.8118 17.2547C25.7252 18.7813 21.0625 21.6667 15.6465 21.6667C10.2305 21.6667 5.56783 18.7813 3.48116 17.2547C3.33264 17.1513 3.21132 17.0135 3.12754 16.853C3.04375 16.6926 3 16.5143 3 16.3333C3 16.1524 3.04375 15.9741 3.12754 15.8136C3.21132 15.6532 3.33264 15.5154 3.48116 15.412C5.56783 13.8853 10.2305 11 15.6465 11C21.0625 11 25.7252 13.8853 27.8118 15.412V15.412Z" stroke="#E5E5E5" stroke-width="2.66667" stroke-linecap="round" stroke-linejoin="round"/>
<path d="M15.6465 21.6666V25.6666" stroke="#E5E5E5" stroke-width="2.66667" stroke-linecap="round" stroke-linejoin="round"/>
<path d="M24.9799 19L27.6465 22.3333" stroke="#E5E5E5" stroke-width="2.66667" stroke-linecap="round" stroke-linejoin="round"/>
<path d="M20.9799 21L22.3132 25" stroke="#E5E5E5" stroke-width="2.66667" stroke-linecap="round" stroke-linejoin="round"/>
<path d="M8.97986 25L10.3132 21" stroke="#E5E5E5" stroke-width="2.66667" stroke-linecap="round" stroke-linejoin="round"/>
<path d="M6.31315 19L3.64648 22.3333" stroke="#E5E5E5" stroke-width="2.66667" stroke-linecap="round" stroke-linejoin="round"/>
</svg>
