<svg width="36" height="32" viewBox="0 0 36 32" fill="none" xmlns="http://www.w3.org/2000/svg">
<path d="M34.958 7.05528C34.753 6.27146 34.3531 5.55687 33.7981 4.98269C33.2431 4.4085 32.5524 3.99473 31.7948 3.7826C29.0211 3 17.8578 3 17.8578 3C17.8578 3 6.69395 3.02369 3.92024 3.80629C3.16258 4.01843 2.47187 4.43222 1.91687 5.00644C1.36188 5.58065 0.961974 6.29526 0.756979 7.07911C-0.0820041 12.1777 -0.407461 19.9468 0.780017 24.8414C0.985033 25.6253 1.38495 26.3398 1.93994 26.914C2.49493 27.4882 3.18564 27.902 3.94327 28.1141C6.71699 28.8967 17.8805 28.8967 17.8805 28.8967C17.8805 28.8967 29.0439 28.8967 31.8175 28.1141C32.5752 27.902 33.2659 27.4883 33.8209 26.9141C34.376 26.3399 34.7759 25.6253 34.9809 24.8414C35.8658 19.7356 36.1385 11.9714 34.958 7.05542V7.05528Z" fill="#FF0000"/>
<path d="M14.3035 21.4976L23.5644 15.9483L14.3036 10.399L14.3035 21.4976Z" fill="white"/>
</svg>
